<svg xmlns="http://www.w3.org/2000/svg" viewBox="0 0 1600 900">
  <defs>
    <linearGradient id="wall" x1="0" x2="1" y1="0" y2="0">
      <stop offset="0%" stop-color="#efe2d2"/>
      <stop offset="100%" stop-color="#ddd0c1"/>
    </linearGradient>
    <linearGradient id="floor" x1="0" x2="1" y1="0" y2="1">
      <stop offset="0%" stop-color="#e5d4bf"/>
      <stop offset="100%" stop-color="#c8b193"/>
    </linearGradient>
    <filter id="shadow" x="-20%" y="-20%" width="140%" height="140%">
      <feGaussianBlur stdDeviation="18"/>
    </filter>
  </defs>

  <rect width="1600" height="720" fill="url(#wall)"/>
  <rect y="720" width="1600" height="180" fill="url(#floor)"/>

  <rect x="0" y="0" width="200" height="900" fill="#d8cab7"/>
  <rect x="92" y="0" width="22" height="900" fill="#151515"/>

  <g opacity="0.2" filter="url(#shadow)">
    <polygon points="170,190 880,350 845,420 140,250" fill="#7f826f"/>
  </g>

  <ellipse cx="318" cy="820" rx="110" ry="20" fill="#b9a58c" opacity="0.45"/>
  <ellipse cx="308" cy="784" rx="58" ry="30" fill="#ffffff"/>
  <rect x="250" y="672" width="116" height="122" rx="14" fill="#ffffff"/>
  <rect x="280" y="566" width="14" height="120" fill="#6f5a3e"/>
  <rect x="309" y="544" width="14" height="140" fill="#715d43"/>
  <rect x="338" y="572" width="14" height="108" fill="#736148"/>

  <g fill="#2b5d2d">
    <path d="M282 634c-70-38-104-88-103-145 58 12 104 52 136 120-1 20-10 31-33 25z"/>
    <path d="M315 596c-30-85-18-155 27-218 31 54 35 121 8 202-15 18-26 22-35 16z"/>
    <path d="M326 620c47-91 112-145 187-161-9 69-53 128-144 179-19 1-35-3-43-18z"/>
    <path d="M264 684c-56-31-84-73-84-121 46 13 81 46 110 99-1 15-10 23-26 22z"/>
    <path d="M339 677c32-72 82-116 148-130-9 56-44 102-112 139-17 2-29-1-36-9z"/>
    <path d="M296 545c-53-28-81-67-83-111 44 8 81 37 110 86-1 15-9 23-27 25z"/>
  </g>
</svg>
