<svg xmlns="http://www.w3.org/2000/svg" viewBox="0 0 1600 900">
  <defs>
    <linearGradient id="floor" x1="0" x2="1" y1="0" y2="1">
      <stop offset="0%" stop-color="#d9c2a1"/>
      <stop offset="100%" stop-color="#b18e67"/>
    </linearGradient>
    <filter id="sunBlur" x="-20%" y="-20%" width="140%" height="140%">
      <feGaussianBlur stdDeviation="18"/>
    </filter>
  </defs>

  <rect width="1600" height="720" fill="#e8dfd2"/>
  <rect y="720" width="1600" height="180" fill="url(#floor)"/>

  <rect x="0" y="0" width="38" height="720" fill="#d1c6b8"/>
  <rect x="205" y="0" width="36" height="720" fill="#d1c6b8"/>
  <rect x="1360" y="0" width="38" height="720" fill="#d1c6b8"/>
  <rect x="1565" y="0" width="35" height="720" fill="#d1c6b8"/>
  <rect x="0" y="85" width="240" height="18" fill="#d1c6b8"/>
  <rect x="1360" y="85" width="240" height="18" fill="#d1c6b8"/>
  <rect x="0" y="315" width="240" height="18" fill="#d1c6b8"/>
  <rect x="1360" y="315" width="240" height="18" fill="#d1c6b8"/>

  <rect x="470" y="150" width="660" height="520" fill="#d8b48a"/>
  <g opacity="0.8">
    <rect x="470" y="150" width="660" height="20" fill="#c79f73"/>
    <rect x="470" y="210" width="660" height="16" fill="#bf9668"/>
    <rect x="470" y="268" width="660" height="16" fill="#caa57d"/>
    <rect x="470" y="324" width="660" height="16" fill="#bd9467"/>
    <rect x="470" y="382" width="660" height="16" fill="#c9a47a"/>
    <rect x="470" y="440" width="660" height="16" fill="#be966a"/>
    <rect x="470" y="498" width="660" height="16" fill="#c7a178"/>
    <rect x="470" y="556" width="660" height="16" fill="#bb9166"/>
  </g>

  <rect x="240" y="0" width="34" height="180" fill="#d8d0c6"/>
  <rect x="274" y="0" width="34" height="180" fill="#eee6db"/>
  <rect x="308" y="0" width="34" height="180" fill="#d8d0c6"/>
  <rect x="342" y="0" width="34" height="180" fill="#eee6db"/>
  <rect x="376" y="0" width="34" height="180" fill="#d8d0c6"/>
  <rect x="820" y="0" width="34" height="180" fill="#d8d0c6"/>
  <rect x="854" y="0" width="34" height="180" fill="#eee6db"/>
  <rect x="888" y="0" width="34" height="180" fill="#d8d0c6"/>

  <g opacity="0.78" filter="url(#sunBlur)">
    <polygon points="1145,245 1310,230 1360,690 1215,708" fill="#fff6d7"/>
    <polygon points="1080,430 1210,415 1320,900 1195,900" fill="#e8c693"/>
  </g>

  <ellipse cx="215" cy="676" rx="72" ry="16" fill="#b29a80" opacity="0.38"/>
  <rect x="176" y="540" width="70" height="128" rx="12" fill="#efefef"/>
  <path d="M212 458c32 31 52 70 56 117h-112c6-50 26-88 56-117z" fill="#d3d9dc"/>
</svg>
